<svg width="200" height="200" viewBox="0 0 200 200" fill="none" xmlns="http://www.w3.org/2000/svg">
<path d="M46.2227 34.6934L34.1807 48.6777H45.2227C45.7746 48.6775 46.2225 48.2297 46.2227 47.6777V34.6934ZM109.427 142.969C109.355 143.729 110.129 144.286 110.827 143.977L123.354 138.434L110.832 128.047L109.427 142.969ZM59.8633 133.542C60.2689 133.167 60.9016 133.192 61.2764 133.598C61.6511 134.003 61.626 134.636 61.2207 135.011L53.6455 142.013C52.5295 143.044 50.8183 143.078 49.6621 142.092L46.5732 139.457C46.1531 139.099 46.1034 138.467 46.4619 138.047C46.8204 137.627 47.451 137.577 47.8711 137.936L50.96 140.57C51.3454 140.899 51.9161 140.888 52.2881 140.544L59.8633 133.542ZM101.134 137.696C101.686 137.696 102.134 138.144 102.134 138.696C102.134 139.248 101.686 139.696 101.134 139.696H68.1523C67.6004 139.696 67.1526 139.248 67.1523 138.696C67.1523 138.144 67.6003 137.697 68.1523 137.696H101.134ZM111.386 125.908L125.055 137.245L142.188 113.693L127.843 104.067L111.386 125.908ZM59.8359 115.259C60.2274 114.869 60.8604 114.871 61.25 115.263C61.6396 115.654 61.6385 116.287 61.2471 116.677L53.6738 124.215C52.5666 125.317 50.7988 125.385 49.6104 124.371L46.5732 121.779C46.1531 121.421 46.1034 120.789 46.4619 120.369C46.8204 119.949 47.4511 119.899 47.8711 120.258L50.9082 122.85C51.3043 123.188 51.8936 123.164 52.2627 122.797L59.8359 115.259ZM108.111 120.019C108.664 120.019 109.111 120.466 109.111 121.019C109.111 121.571 108.663 122.018 108.111 122.019H68.1523C67.6003 122.018 67.1524 121.571 67.1523 121.019C67.1523 120.466 67.6003 120.019 68.1523 120.019H108.111ZM151.579 74.9941C151.143 74.6735 150.531 74.7573 150.198 75.1836L133.645 96.3662L133.646 96.3672L129.049 102.467L143.365 112.075L163.216 84.79C163.539 84.3451 163.442 83.7225 162.999 83.3965L151.579 74.9941ZM59.791 99.5244C60.1557 99.1096 60.7874 99.069 61.2021 99.4336C61.6167 99.7983 61.6575 100.43 61.293 100.845L53.7139 109.466C52.6314 110.697 50.7609 110.832 49.5137 109.768L46.5732 107.259C46.1531 106.9 46.1034 106.269 46.4619 105.849C46.8204 105.429 47.451 105.379 47.8711 105.737L50.8115 108.246C51.2272 108.601 51.8511 108.556 52.2119 108.146L59.791 99.5244ZM118.894 103.604C119.446 103.604 119.893 104.051 119.894 104.604C119.894 105.156 119.446 105.603 118.894 105.604H68.1523C67.6003 105.603 67.1523 105.156 67.1523 104.604C67.1524 104.051 67.6003 103.604 68.1523 103.604H118.894ZM117.894 59.8848C117.894 59.3325 117.446 58.8848 116.894 58.8848H49.2227C48.6704 58.8848 48.2227 59.3325 48.2227 59.8848V88.083C48.2227 88.6353 48.6704 89.083 49.2227 89.083H116.894C117.446 89.083 117.894 88.6353 117.894 88.083V59.8848ZM161.08 69.3193C160.646 68.9957 160.034 69.0758 159.698 69.5L155.204 75.1777L161.207 79.5947L165.659 74.0273C166.012 73.5859 165.929 72.9398 165.477 72.6016L161.08 69.3193ZM133.848 156.898C133.848 158.555 132.504 159.898 130.848 159.898H48.2227V167C48.2227 167.552 48.6704 168 49.2227 168H144.801C145.353 168 145.801 167.552 145.801 167V112.127L133.848 128.559V156.898ZM119.894 88.083C119.894 89.7398 118.55 91.083 116.894 91.083H49.2227C47.5658 91.083 46.2227 89.7398 46.2227 88.083V59.8848C46.2227 58.2279 47.5658 56.8848 49.2227 56.8848H116.894C118.55 56.8848 119.894 58.2279 119.894 59.8848V88.083ZM145.801 44.7324C145.801 44.1803 145.353 43.7324 144.801 43.7324H133.848V92.8604L145.801 77.5615V44.7324ZM131.848 34C131.848 33.4479 131.4 33.0002 130.848 33H48.2227V47.6777C48.2225 49.3343 46.8792 50.6775 45.2227 50.6777H33V156.898C33 157.451 33.4477 157.898 34 157.898H130.848C131.4 157.898 131.848 157.451 131.848 156.898V131.308L126.045 139.284C125.941 139.427 125.802 139.539 125.641 139.61L111.636 145.806C109.54 146.733 107.221 145.063 107.436 142.781L109.019 125.976L109.041 125.839C109.073 125.705 109.132 125.578 109.215 125.468L131.848 95.4297V34ZM133.848 41.7324H144.801C146.458 41.7324 147.801 43.0757 147.801 44.7324V75.0029L148.622 73.9521C149.621 72.6733 151.456 72.4212 152.764 73.3828L153.592 73.9922L158.13 68.2588C159.138 66.9857 160.975 66.7456 162.276 67.7168L166.673 70.999C168.032 72.0135 168.281 73.9518 167.222 75.2764L162.819 80.7803L164.185 81.7852C165.514 82.7633 165.804 84.6321 164.833 85.9668L164.296 86.7041L167.96 89.3574C169.306 90.3322 169.603 92.2158 168.623 93.5576L159.659 105.825C159.333 106.271 158.708 106.368 158.262 106.042C157.816 105.716 157.719 105.091 158.044 104.646L167.008 92.377C167.334 91.9298 167.235 91.3024 166.787 90.9775L163.119 88.3213L147.801 109.378V167C147.801 168.657 146.458 170 144.801 170H49.2227C47.5658 170 46.2227 168.657 46.2227 167V159.898H34C32.3431 159.898 31 158.555 31 156.898V49.6777C31 49.4382 31.0859 49.2059 31.2422 49.0244L46.4648 31.3477L46.54 31.2695C46.7242 31.0975 46.9679 31 47.2227 31H130.848C132.504 31.0002 133.848 32.3433 133.848 34V41.7324Z" fill="black"/>
</svg>
