<svg width="800" height="800" viewBox="0 0 512 512" xmlns="http://www.w3.org/2000/svg" xmlns:xlink="http://www.w3.org/1999/xlink" id="Layer_1" overflow="hidden"><style>
.MsftOfcResponsive_Fill_0078c1 {
 fill:#0078C1; 
}
</style>
<g><g><g><path d="M512 195.478 512 192.158C512 180.252 502.313 170.565 490.407 170.565L191.902 170.565C179.994 170.565 170.307 180.252 170.307 192.158L170.307 195.478C170.307 207.384 179.994 217.071 191.902 217.071L192.177 217.071 192.177 255.357 160.132 255.357 154.194 131.702C153.98 127.243 150.19 123.79 145.731 124.016 141.272 124.23 137.83 128.018 138.045 132.479L143.946 255.358 80.066 255.358 88.385 82.134 135.626 82.134 136.8 106.566C137.014 111.025 140.785 114.459 145.263 114.252 149.722 114.038 153.164 110.25 152.949 105.789L150.414 53.011 149.948 43.322 149.948 43.321 148.645 16.169 150.833 16.169C155.298 16.169 158.917 12.549 158.917 8.085 158.917 3.621 155.298 0 150.833 0L140.163 0 83.848 0 73.178 0C68.713 0 65.094 3.62 65.094 8.084 65.094 12.548 68.714 16.168 73.178 16.168L75.366 16.168 74.062 43.32C74.062 43.321 74.062 43.322 74.062 43.323L72.605 73.662 63.879 255.357 21.596 255.357C9.69 255.357 0.001 265.044 0.001 276.952L0.001 280.271C0.001 290.121 6.636 298.432 15.666 301.018L15.666 466.338C6.636 468.924 0 477.237 0 487.087L0 490.406C0 502.313 9.687 512 21.595 512L418.909 512C423.375 512 426.993 508.382 426.993 503.916 426.993 499.45 423.374 495.832 418.909 495.832L21.595 495.832C18.604 495.832 16.169 493.398 16.169 490.406L16.169 487.087C16.169 484.096 18.603 481.661 21.595 481.661L23.751 481.661 59.047 481.661C59.055 481.661 59.062 481.662 59.07 481.662L164.68 481.662C164.688 481.662 164.695 481.661 164.703 481.661L200.241 481.661C200.249 481.661 200.256 481.662 200.264 481.662L489.139 481.662C489.147 481.662 489.154 481.661 489.162 481.661L490.411 481.661C493.402 481.661 495.836 484.096 495.836 487.087L495.836 490.406C495.836 493.398 493.402 495.832 490.411 495.832L446.789 495.832C442.323 495.832 438.705 499.451 438.705 503.916 438.705 508.382 442.324 512 446.789 512L490.408 512C502.314 512 512.001 502.313 512.001 490.405L512.001 487.086C512.001 477.561 505.794 469.471 497.22 466.61L497.22 215.953C505.795 213.092 512 205.003 512 195.478ZM91.553 16.168 132.458 16.168 133.393 35.626 90.619 35.626 91.553 16.168ZM89.841 51.795 134.168 51.795 134.848 65.965 89.161 65.965 89.841 51.795ZM156.594 465.492 67.152 465.492 67.152 446.642 156.595 446.642 156.595 465.492ZM156.594 430.472 67.152 430.472 67.152 411.62 156.595 411.62 156.595 430.472ZM156.594 395.452 67.152 395.452 67.152 376.6 156.595 376.6 156.595 395.452ZM192.177 465.492 172.763 465.492 172.763 438.558 172.763 403.537 172.763 368.517C172.763 364.051 169.143 360.433 164.679 360.433L59.068 360.433C54.603 360.433 50.984 364.051 50.984 368.517L50.984 403.537 50.984 438.558 50.984 465.492 31.835 465.492 31.835 301.867 192.177 301.867 192.177 465.492ZM192.177 285.699 23.75 285.699 21.595 285.699C18.604 285.699 16.169 283.264 16.169 280.273L16.169 276.953C16.169 273.962 18.603 271.527 21.595 271.527L71.585 271.527 152.427 271.527 192.177 271.527 192.177 285.699ZM495.832 195.478C495.832 198.469 493.398 200.903 490.407 200.903L454.333 200.903C449.867 200.903 446.249 204.523 446.249 208.987 446.249 213.452 449.867 217.071 454.333 217.071L481.051 217.071 481.051 465.491 208.345 465.491 208.345 293.781 208.345 217.07 425.229 217.07C429.695 217.07 433.313 213.45 433.313 208.986 433.313 204.521 429.695 200.902 425.229 200.902L191.902 200.902C188.91 200.902 186.476 198.468 186.476 195.477L186.476 192.157C186.476 189.166 188.91 186.732 191.902 186.732L490.407 186.732C493.398 186.732 495.832 189.166 495.832 192.157L495.832 195.478Z" class="MsftOfcResponsive_Fill_0078c1" fill="#0078C1"/><path d="M59.068 345.342 164.679 345.342C169.144 345.342 172.763 341.724 172.763 337.258 172.763 332.793 169.143 329.174 164.679 329.174L59.068 329.174C54.603 329.174 50.984 332.794 50.984 337.258 50.983 341.724 54.603 345.342 59.068 345.342Z" class="MsftOfcResponsive_Fill_0078c1" fill="#0078C1"/><path d="M345.322 236.682 292.278 236.682 239.237 236.682C234.772 236.682 231.153 240.302 231.153 244.766L231.153 283.286 231.153 321.806 231.153 360.326 231.153 398.846C231.153 398.865 231.156 398.884 231.156 398.903 231.156 398.922 231.153 398.941 231.153 398.96L231.153 437.48C231.153 441.946 234.773 445.565 239.237 445.565L292.278 445.565 345.322 445.565 398.366 445.565 451.408 445.565C455.874 445.565 459.492 441.945 459.492 437.481L459.492 398.961C459.492 398.942 459.489 398.923 459.489 398.904 459.489 398.885 459.492 398.866 459.492 398.847L459.492 360.327 459.492 321.806 459.492 283.286 459.492 244.766C459.492 240.301 455.874 236.682 451.408 236.682L398.366 236.682 345.322 236.682ZM247.321 252.849 284.194 252.849 284.194 275.2 247.321 275.2 247.321 252.849ZM284.193 429.394 247.32 429.394 247.32 407.043 284.193 407.043 284.193 429.394ZM284.193 390.761 247.32 390.761 247.32 368.41 284.193 368.41 284.193 390.761ZM284.193 352.241 247.32 352.241 247.32 329.89 284.193 329.89 284.193 352.241ZM284.195 313.721 247.322 313.721 247.322 291.37 284.195 291.37 284.195 313.721ZM337.239 429.394 300.363 429.394 300.363 407.043 337.239 407.043 337.239 429.394ZM337.239 390.762 300.363 390.762 300.363 368.41 337.239 368.41 337.239 390.762ZM337.239 352.241 300.363 352.241 300.363 329.89 337.239 329.89 337.239 352.241ZM337.239 313.721 300.363 313.721 300.363 291.37 337.239 291.37 337.239 313.721ZM337.239 275.202 300.363 275.202 300.363 252.85 337.239 252.85 337.239 275.202ZM390.283 429.394 353.407 429.394 353.407 407.043 390.283 407.043 390.283 429.394ZM390.283 390.762 353.407 390.762 353.407 368.41 390.283 368.41 390.283 390.762ZM390.283 352.241 353.407 352.241 353.407 329.89 390.283 329.89 390.283 352.241ZM390.283 313.721 353.407 313.721 353.407 291.37 390.283 291.37 390.283 313.721ZM390.283 275.202 353.407 275.202 353.407 252.85 390.283 252.85 390.283 275.202ZM443.325 390.761 406.451 390.761 406.451 368.41 443.325 368.41 443.325 390.761ZM406.451 252.85 443.325 252.85 443.325 275.201 406.451 275.201 406.451 252.85ZM406.451 291.37 443.325 291.37 443.325 313.721 406.451 313.721 406.451 291.37ZM406.451 329.89 443.325 329.89 443.325 352.241 406.451 352.241 406.451 329.89ZM406.451 407.044 443.325 407.044 443.325 429.395 406.451 429.395 406.451 407.044Z" class="MsftOfcResponsive_Fill_0078c1" fill="#0078C1"/></g></g></g></svg>