<svg width="200" height="200" viewBox="0 0 200 200" fill="none" xmlns="http://www.w3.org/2000/svg">
<path d="M166 159.177C166 158.625 165.552 158.177 165 158.177H148.405V165H165C165.552 165 166 164.552 166 164V159.177ZM90.7832 119.886V113.611C90.7835 110.911 94.0716 109.586 95.9443 111.531L104.412 120.325C106.247 122.231 104.896 125.406 102.251 125.406H100.104C99.5514 125.406 99.1035 125.854 99.1035 126.406V134.449C99.1035 137.174 95.765 138.488 93.9082 136.494L84.0703 125.93C82.2837 124.011 83.6441 120.886 86.2656 120.886H89.7832C90.3353 120.886 90.783 120.438 90.7832 119.886ZM67.1318 129.078C67.6841 129.078 68.1318 129.526 68.1318 130.078C68.1318 130.63 67.6841 131.078 67.1318 131.078H46.2734C45.7212 131.078 45.2734 130.63 45.2734 130.078C45.2734 129.526 45.7212 129.078 46.2734 129.078H67.1318ZM141.528 129.078H160.868L157.603 84.4424H144.793L141.528 129.078ZM122.749 94.5264C122.245 99.6826 121.858 103.957 121.858 104.87L121.855 104.953L120.682 118.995H136.213L134.354 94.5264H122.749ZM67.1318 115.214C67.6841 115.214 68.1318 115.662 68.1318 116.214C68.1317 116.766 67.684 117.214 67.1318 117.214H46.2734C45.7213 117.214 45.2736 116.766 45.2734 116.214C45.2734 115.662 45.7212 115.214 46.2734 115.214H67.1318ZM68.3965 100.719C68.9487 100.719 69.3965 101.167 69.3965 101.719C69.3965 102.271 68.9487 102.719 68.3965 102.719H46.2734C45.7212 102.719 45.2734 102.271 45.2734 101.719C45.2734 101.167 45.7212 100.719 46.2734 100.719H68.3965ZM125.187 79.4014C124.674 79.4015 124.247 79.7868 124.193 80.2939C123.828 83.7864 123.365 88.303 122.946 92.5264H134.202L133.275 80.3252C133.236 79.8039 132.801 79.4014 132.278 79.4014H125.187ZM105.688 86.2236C106.241 86.2236 106.688 86.6715 106.688 87.2236C106.688 87.7759 106.241 88.2236 105.688 88.2236H46.2734C45.7212 88.2236 45.2734 87.7759 45.2734 87.2236C45.2736 86.6715 45.7213 86.2237 46.2734 86.2236H105.688ZM146.736 70.5781C146.212 70.5782 145.778 70.9825 145.739 71.5049L144.938 82.4424H157.457L156.657 71.5049C156.619 70.9826 156.184 70.5783 155.66 70.5781H146.736ZM104.688 50.2344C104.688 49.6821 104.241 49.2344 103.688 49.2344H48.2734C47.7212 49.2345 47.2734 49.6821 47.2734 50.2344V71.6611C47.2734 72.215 47.7207 72.6611 48.2715 72.6611H103.694C104.243 72.6611 104.688 72.2171 104.688 71.6611V50.2344ZM71.9248 164C71.9248 164.552 72.3725 165 72.9248 165H120.841V158.177H71.9248V164ZM146.405 147.203C146.405 146.651 145.958 146.203 145.405 146.203H135.623V165H146.405V147.203ZM122.841 165H133.623V146.203H123.841C123.289 146.203 122.841 146.651 122.841 147.203V165ZM44.0098 146.573C44.0098 146.021 43.5619 145.573 43.0098 145.573H35.334L44.0098 154.678V146.573ZM114.17 102.458C114.17 101.906 113.722 101.458 113.17 101.458H76.7402C76.1802 101.458 75.7333 101.911 75.7393 102.465C75.8432 111.987 75.9599 125.422 75.9893 136.6C76.0039 142.187 75.9964 147.215 75.9551 150.908C75.9344 152.753 75.9059 154.273 75.8662 155.364C75.8553 155.665 75.842 155.938 75.8291 156.177H120.841V147.203C120.841 145.546 122.184 144.203 123.841 144.203H145.405C147.062 144.203 148.405 145.546 148.405 147.203V156.177H160.943V131.078H117.17C115.513 131.078 114.17 129.735 114.17 128.078V102.458ZM116.17 128.078C116.17 128.63 116.618 129.078 117.17 129.078H139.522L140.115 120.995H116.17V128.078ZM92.7832 119.886C92.783 121.542 91.4399 122.886 89.7832 122.886H86.2656C85.3918 122.886 84.9386 123.928 85.5342 124.567L95.3721 135.131C95.991 135.795 97.1035 135.357 97.1035 134.449V126.406C97.1035 124.749 98.4468 123.406 100.104 123.406H102.251C103.133 123.406 103.582 122.348 102.971 121.713L94.5029 112.918C93.8787 112.27 92.7835 112.712 92.7832 113.611V119.886ZM116.17 118.995H118.674L119.858 104.832V37C119.858 36.4477 119.411 36 118.858 36H35C34.4477 36 34 36.4477 34 37V143.573H43.0098C44.6665 143.573 46.0098 144.916 46.0098 146.573V156.177H73.8262C73.8403 155.933 73.8546 155.637 73.8672 155.292C73.906 154.226 73.9355 152.726 73.9561 150.886C73.9972 147.207 74.0039 142.191 73.9893 136.605C73.9599 125.436 73.8432 112.006 73.7393 102.486C73.7212 100.813 75.0735 99.458 76.7402 99.458H113.17C114.827 99.4581 116.17 100.801 116.17 102.458V118.995ZM106.688 71.6611C106.688 73.3143 105.355 74.6611 103.694 74.6611H48.2715C46.6131 74.6611 45.2734 73.3165 45.2734 71.6611V50.2344C45.2734 48.5776 46.6167 47.2345 48.2734 47.2344H103.688C105.345 47.2344 106.688 48.5775 106.688 50.2344V71.6611ZM121.858 83.4297C121.981 82.248 122.096 81.1218 122.204 80.0859C122.364 78.5578 123.653 77.4015 125.187 77.4014H132.278C133.847 77.4014 135.151 78.6097 135.27 80.1738L138.22 118.995H140.261L143.744 71.3594C143.859 69.7916 145.164 68.5782 146.736 68.5781H155.66C157.232 68.5783 158.537 69.7917 158.651 71.3594L162.94 130.005C162.942 130.029 162.943 130.054 162.943 130.078V156.177H165C166.657 156.177 168 157.52 168 159.177V164C168 165.657 166.657 167 165 167H72.9248C71.268 167 69.9248 165.657 69.9248 164V158.177H45.0098C44.7362 158.177 44.4739 158.065 44.2852 157.867L32.2764 145.263C32.0993 145.077 32.0001 144.83 32 144.573V37C32 35.3431 33.3431 34 35 34H118.858C120.515 34 121.858 35.3431 121.858 37V83.4297Z" fill="black"/>
</svg>
