<svg width="200" height="200" viewBox="0 0 200 200" fill="none" xmlns="http://www.w3.org/2000/svg">
<path d="M124.097 159.283H57.8262C57.404 159.283 57.0273 159.018 56.8848 158.621C56.3395 157.098 55.0703 154.76 53.0742 152.818C51.0908 150.889 48.4372 149.393 45.0801 149.393C40.6576 149.393 37.7672 150.576 35.8867 152.53C33.9851 154.507 32.9651 157.425 32.6211 161.2C32.3099 164.616 33.9802 166.759 36.2158 168.113C38.5064 169.501 41.3269 170 42.9551 170H123.109C123.653 170 124.097 169.56 124.097 169V159.283ZM45.0801 30C40.5622 30 37.7477 30.6965 35.9228 31.7256C34.1373 32.7325 33.2024 34.1124 32.5537 35.7305C32.5708 35.6879 32.5487 35.7367 32.5156 35.9844C32.4873 36.1967 32.4586 36.4888 32.4307 36.8633C32.3749 37.6106 32.3248 38.6429 32.2803 39.9365C32.1913 42.5216 32.126 46.1135 32.081 50.4805C31.9911 59.2124 31.9821 71.0181 32.0234 84.0127C32.0967 107.057 32.3309 133.828 32.5469 153.799C33.062 152.82 33.689 151.93 34.4453 151.144C36.8135 148.682 40.2971 147.393 45.0801 147.393C49.0866 147.393 52.2155 149.193 54.4687 151.385C55.3935 152.284 56.178 153.258 56.8262 154.215V36.998C55.6367 34.5815 51.755 30.0001 45.0801 30ZM86.1504 136.796C86.7026 136.796 87.1503 137.244 87.1504 137.796C87.1504 138.348 86.7027 138.796 86.1504 138.796H67.0312C66.479 138.796 66.0312 138.348 66.0312 137.796C66.0313 137.244 66.4791 136.796 67.0312 136.796H86.1504ZM99.9346 124.745C99.827 124.854 99.7458 124.987 99.6973 125.132L96.1738 135.677C95.911 136.463 96.6653 137.21 97.4492 136.939L111.562 132.064C111.714 132.012 111.852 131.925 111.962 131.809L137.118 105.316L143.459 98.5469L133.669 90.6279L99.9346 124.745ZM87.5664 125.492C88.1186 125.492 88.5662 125.94 88.5664 126.492C88.5664 127.044 88.1187 127.492 87.5664 127.492H67.0312C66.479 127.492 66.0312 127.044 66.0312 126.492C66.0314 125.94 66.4791 125.492 67.0312 125.492H87.5664ZM97.4805 113.482C98.0326 113.482 98.4804 113.93 98.4805 114.482C98.4805 115.035 98.0327 115.482 97.4805 115.482H67.0312C66.479 115.482 66.0312 115.035 66.0312 114.482C66.0313 113.93 66.4791 113.482 67.0312 113.482H97.4805ZM108.103 102.179C108.654 102.179 109.102 102.627 109.103 103.179C109.103 103.731 108.655 104.178 108.103 104.179H67.0312C66.479 104.179 66.0312 103.731 66.0312 103.179C66.0315 102.627 66.4791 102.179 67.0312 102.179H108.103ZM151.356 74.0508C150.958 73.7143 150.367 73.7413 150 74.1123L135.082 89.1992L144.829 97.084L159.761 81.1455L151.356 74.0508ZM115.892 90.1689C116.444 90.1691 116.891 90.6168 116.892 91.1689C116.892 91.7211 116.444 92.1688 115.892 92.1689H78.3613C77.809 92.1689 77.3613 91.7212 77.3613 91.1689C77.3614 90.6168 77.8091 90.1689 78.3613 90.1689H115.892ZM125.513 52.9004C125.513 52.3482 125.065 51.9004 124.513 51.9004H69.7393C69.1871 51.9005 68.7393 52.3482 68.7393 52.9004V77.1592C68.7393 77.7114 69.1871 78.1591 69.7393 78.1592H124.513C125.065 78.1592 125.513 77.7115 125.513 77.1592V52.9004ZM136.843 38.7715C136.843 38.2192 136.395 37.7715 135.843 37.7715H58.8262V157.283H135.843C136.395 157.283 136.843 156.835 136.843 156.283V108.51L113.412 133.186C113.081 133.534 112.67 133.798 112.216 133.955L98.1016 138.829C95.7499 139.641 93.4889 137.403 94.2773 135.043L97.8008 124.498C97.9463 124.062 98.1897 123.665 98.5127 123.339L136.843 84.5742V38.7715ZM127.513 77.1592C127.513 78.816 126.17 80.1592 124.513 80.1592H69.7393C68.0825 80.1591 66.7393 78.816 66.7393 77.1592V52.9004C66.7393 51.2437 68.0825 49.9005 69.7393 49.9004H124.513C126.17 49.9004 127.513 51.2436 127.513 52.9004V77.1592ZM138.843 82.5518L148.578 72.7061C149.679 71.593 151.45 71.5129 152.646 72.5225L155.899 75.2686L160.565 71.3301C160.987 70.9739 161.618 71.0275 161.975 71.4492C162.331 71.8712 162.277 72.5021 161.855 72.8584L157.449 76.5771L167.98 85.4678C169.323 86.6018 169.408 88.6423 168.164 89.8838L151.295 106.713C150.904 107.103 150.271 107.102 149.881 106.711C149.491 106.32 149.492 105.687 149.883 105.297L166.751 88.4678C167.166 88.0539 167.138 87.3731 166.69 86.9951L161.291 82.4375L138.843 106.399V156.283C138.843 157.94 137.5 159.283 135.843 159.283H126.097V169C126.097 170.649 124.774 172 123.109 172H42.9551C41.0426 172 37.8445 171.439 35.1787 169.824C32.4701 168.183 30.2546 165.4 30.626 161.078C30.39 140.707 30.106 109.997 30.0234 84.0195C29.9821 71.0223 29.991 59.2056 30.081 50.46C30.1261 46.0881 30.1914 42.4766 30.2812 39.8672C30.3261 38.5639 30.3778 37.5007 30.4365 36.7139C30.4658 36.3215 30.4976 35.9866 30.5332 35.7197C30.5641 35.4883 30.6094 35.2055 30.6973 34.9863C31.4647 33.0721 32.6544 31.2725 34.9404 29.9834C37.1872 28.7164 40.3925 28 45.0801 28C52.4419 28.0001 56.848 32.8348 58.4424 35.7715H135.843C137.5 35.7715 138.843 37.1146 138.843 38.7715V82.5518Z" fill="black"/>
</svg>
