<svg width="399" height="414" viewBox="0 0 399 414" fill="none" xmlns="http://www.w3.org/2000/svg">
<path d="M74.4996 373.574H273M74.4996 373.574C74.4996 334.5 4.99959 340.5 4.99959 373.574M74.4996 373.574V29.0738M74.4996 29.0738C74.4996 -4.00002 4.99959 -2 4.99959 25.0738C4.99959 72.2738 4.99959 277.074 4.99959 373.574M74.4996 29.0738L305 29.0738V169.13M4.99959 373.574C3.49971 396 13 408.412 46.4998 409C69.2998 409.4 203.166 408.74 273 408.574V373.574M273 373.574H305V224.074M305 224.074L228.5 301.574L181.5 319.074L196 279.574L299.134 175.074M305 224.074L325 202.566M343.5 224.074L395 171.574L373 152M373 152L360 138.761M373 152L325 202.566M360 138.761L347 126.574L305 169.13M360 138.761L373 126.574M299.134 175.074L325 202.566M299.134 175.074L305 169.13M137.5 180.574H247.5M225 214.074H102.5M102.5 247.074H193M102.5 279.574H167M102.5 313.574H158.5M106 64.5738C105.6 68.5738 105.833 120.24 106 145.574H275V64.5738H106Z" stroke="black" stroke-width="8" stroke-linejoin="round"/>
</svg>
