<svg width="24" height="24" viewBox="0 0 24 24" fill="none" xmlns="http://www.w3.org/2000/svg">
<path d="M8.21621 19.4184H17.3823M8.21621 19.4184C8.21621 17.6801 5.00691 17.947 5.00691 19.4184M8.21621 19.4184V4.09266M8.21621 4.09266C8.21621 2.62132 5.00691 2.71029 5.00691 3.91472C5.00691 6.01449 5.00691 15.1254 5.00691 19.4184M8.21621 4.09266L18.86 4.09267V19.4184H17.3823M5.00691 19.4184C5 20 5.4532 19.9739 7.00012 20C8.05295 20.0178 14.1576 20.0074 17.3823 20V19.4184M10.9206 12H17M14.2272 16H12.0659H9.9045M9.9045 8.14286H17.2251" stroke="#4A4A4A" stroke-width="2" stroke-linejoin="round"/>
</svg>
