<svg width="200" height="200" viewBox="0 0 200 200" fill="none" xmlns="http://www.w3.org/2000/svg">
<path d="M125.714 129.183C125.714 128.63 125.266 128.183 124.714 128.183H113.952V137.543H124.714C125.266 137.543 125.714 137.095 125.714 136.543V129.183ZM154.857 129.183C154.857 128.631 154.409 128.183 153.857 128.183H136C135.448 128.183 135 128.63 135 129.183V136.543C135 137.095 135.448 137.543 136 137.543H153.857C154.41 137.543 154.857 137.095 154.857 136.543V129.183ZM103.857 85.7998C103.857 73.3539 93.7918 63.2685 81.3809 63.2685C68.9699 63.2686 58.9044 73.3539 58.9043 85.7998C58.9043 98.2457 68.9699 108.331 81.3809 108.331C93.7919 108.331 103.857 98.2458 103.857 85.7998ZM66.4404 106.597C65.742 105.954 64.7493 106.103 64.3828 106.646C60.551 112.334 51.3897 125.894 48.3779 130.352C48.1013 130.761 48.1705 131.312 48.5566 131.65L51.9775 134.651C52.4344 135.052 53.1396 134.955 53.4727 134.447L69.3672 110.203C69.707 109.685 69.5153 108.767 68.7256 108.3C67.9242 107.826 67.1558 107.255 66.4404 106.597ZM154.857 112.143C154.857 111.591 154.409 111.143 153.857 111.143H136C135.448 111.143 135 111.59 135 112.143V118.691C135 119.244 135.448 119.691 136 119.691H153.857C154.41 119.691 154.857 119.244 154.857 118.691V112.143ZM100.619 85.7998C100.619 75.1465 92.0035 66.5146 81.3809 66.5146C70.7583 66.5147 62.1427 75.1465 62.1426 85.7998C62.1426 96.4532 70.7582 105.086 81.3809 105.086C92.0036 105.086 100.619 96.4532 100.619 85.7998ZM154.857 94.291C154.857 93.739 154.409 93.2912 153.857 93.291H136C135.448 93.291 135 93.7389 135 94.291V100.84C135 101.392 135.448 101.84 136 101.84H153.857C154.41 101.84 154.857 101.392 154.857 100.84V94.291ZM154.857 77.251C154.857 76.699 154.409 76.2511 153.857 76.251H136C135.448 76.251 135 76.6989 135 77.251V83.7998C135 84.3521 135.448 84.7998 136 84.7998H153.857C154.41 84.7996 154.857 84.352 154.857 83.7998V77.251ZM154.857 59.4004C154.857 58.8482 154.41 58.4005 153.857 58.4004H136C135.448 58.4004 135 58.8481 135 59.4004V66.7598C135 67.312 135.448 67.7598 136 67.7598H153.857C154.41 67.7596 154.857 67.3119 154.857 66.7598V59.4004ZM125.714 112.143C125.714 111.59 125.266 111.143 124.714 111.143H113.952V119.691H124.714C125.266 119.691 125.714 119.244 125.714 118.691V112.143ZM156.857 136.543C156.857 138.2 155.514 139.543 153.857 139.543H136C134.343 139.543 133 138.2 133 136.543V129.183C133 127.526 134.343 126.183 136 126.183H153.857C155.514 126.183 156.857 127.526 156.857 129.183V136.543ZM125.714 94.291C125.714 93.7389 125.266 93.291 124.714 93.291H113.952V101.84H124.714C125.266 101.84 125.714 101.392 125.714 100.84V94.291ZM156.857 118.691C156.857 120.348 155.514 121.691 153.857 121.691H136C134.343 121.691 133 120.348 133 118.691V112.143C133 110.486 134.343 109.143 136 109.143H153.857C155.514 109.143 156.857 110.486 156.857 112.143V118.691ZM125.714 77.251C125.714 76.6989 125.266 76.251 124.714 76.251H113.952V84.7998H124.714C125.266 84.7998 125.714 84.3521 125.714 83.7998V77.251ZM156.857 100.84C156.857 102.497 155.514 103.84 153.857 103.84H136C134.343 103.84 133 102.497 133 100.84V94.291C133 92.6343 134.343 91.291 136 91.291H153.857C155.514 91.2912 156.857 92.6344 156.857 94.291V100.84ZM102.619 85.7998C102.619 97.5534 93.1125 107.086 81.3809 107.086C69.6492 107.086 60.1426 97.5533 60.1426 85.7998C60.1427 74.0464 69.6493 64.5147 81.3809 64.5146C93.1125 64.5146 102.619 74.0463 102.619 85.7998ZM105.857 85.7998C105.857 99.3459 94.9009 110.331 81.3809 110.331C77.7285 110.331 74.264 109.528 71.1514 108.091C71.6512 109.065 71.7234 110.258 71.04 111.3L55.1455 135.544C54.146 137.068 52.0287 137.356 50.6582 136.154L47.2373 133.154C46.1087 132.164 45.8694 130.493 46.7207 129.232C49.7327 124.774 58.8926 111.216 62.7236 105.529C63.3231 104.639 64.2361 104.221 65.1719 104.18C60.1019 99.6847 56.9043 93.1162 56.9043 85.7998C56.9044 72.2538 67.8609 61.2686 81.3809 61.2685C94.9008 61.2685 105.857 72.2538 105.857 85.7998ZM125.714 59.4004C125.714 58.8481 125.266 58.4004 124.714 58.4004H113.952V67.7598H124.714C125.266 67.7598 125.714 67.312 125.714 66.7598V59.4004ZM156.857 83.7998C156.857 85.4566 155.514 86.7996 153.857 86.7998H136C134.343 86.7998 133 85.4566 133 83.7998V77.251C133 75.5943 134.343 74.251 136 74.251H153.857C155.514 74.2511 156.857 75.5944 156.857 77.251V83.7998ZM127.714 66.7598C127.714 68.4166 126.371 69.7598 124.714 69.7598H113.952V74.251H124.714C126.371 74.251 127.714 75.5943 127.714 77.251V83.7998C127.714 85.4566 126.371 86.7998 124.714 86.7998H113.952V91.291H124.714C126.371 91.291 127.714 92.6343 127.714 94.291V100.84C127.714 102.497 126.371 103.84 124.714 103.84H113.952V109.143H124.714C126.371 109.143 127.714 110.486 127.714 112.143V118.691C127.714 120.348 126.371 121.691 124.714 121.691H113.952V126.183H124.714C126.371 126.183 127.714 127.526 127.714 129.183V136.543C127.714 138.2 126.371 139.543 124.714 139.543H113.952V148.903H166C166.552 148.903 167 148.455 167 147.903V44.7939C167 44.2418 166.552 43.7939 166 43.7939H113.952V56.4004H124.714C126.371 56.4004 127.714 57.7435 127.714 59.4004V66.7598ZM156.857 66.7598C156.857 68.4165 155.514 69.7596 153.857 69.7598H136C134.343 69.7598 133 68.4166 133 66.7598V59.4004C133 57.7435 134.343 56.4004 136 56.4004H153.857C155.514 56.4005 156.857 57.7436 156.857 59.4004V66.7598ZM111.952 31.3701C111.952 30.7507 111.395 30.2797 110.784 30.3838L33.832 43.4961C33.3515 43.578 33 43.9949 33 44.4824V152.348C33.0001 152.846 33.3113 153.221 33.7441 153.314C43.781 155.489 99.9135 167.637 111.205 169.714C111.455 169.76 111.621 169.69 111.728 169.594C111.843 169.49 111.952 169.297 111.952 169V31.3701ZM113.952 41.7939H166C167.657 41.7939 169 43.1372 169 44.7939V147.903C169 149.56 167.657 150.903 166 150.903H113.952V169C113.952 169.808 113.642 170.562 113.064 171.081C112.479 171.607 111.68 171.834 110.844 171.681C99.5119 169.597 43.3301 157.439 33.3203 155.27C31.9137 154.965 31.0001 153.731 31 152.348V44.4824C31 43.02 32.0545 41.771 33.4961 41.5254L110.448 28.4121C112.28 28.1 113.952 29.5119 113.952 31.3701V41.7939Z" fill="black"/>
</svg>
