<svg width="200" height="200" viewBox="0 0 200 200" fill="none" xmlns="http://www.w3.org/2000/svg">
<path d="M124.148 135.148V73.142C124.148 72.4918 124.359 71.8589 124.75 71.3392L125.716 70.0551C126.282 69.3014 127.17 68.8579 128.113 68.8578H131.399C132.309 68.8579 133.17 69.271 133.739 69.9808L135.321 71.9545C135.748 72.4867 135.981 73.1483 135.981 73.8304V76.3031C135.982 76.823 136.403 77.3183 137.013 77.4017C137.917 77.5255 139.044 77.7326 139.935 78.0834C141.116 78.5479 142.37 79.4567 143.276 80.1869C143.774 80.5879 144.456 80.5353 144.831 80.1469L146.781 78.1254C147.346 77.5395 148.126 77.2084 148.94 77.2084H151.175C151.989 77.2084 152.768 77.5396 153.333 78.1254L155.977 80.8656C156.637 81.5495 156.934 82.5055 156.777 83.4427L156.377 85.8373C156.289 86.3634 156.062 86.8566 155.721 87.266L153.961 89.3734C153.637 89.761 153.629 90.3906 154.012 90.851C154.773 91.7678 155.766 93.0998 156.238 94.3607C156.564 95.2324 156.735 96.3192 156.829 97.2035C156.897 97.8426 157.408 98.2894 157.941 98.2894H160.374C161.168 98.2894 161.931 98.6043 162.493 99.1654L163.848 100.517C164.494 101.162 164.811 102.066 164.71 102.973L164.239 107.203C164.164 107.881 163.86 108.514 163.377 108.995L162.493 109.877C161.931 110.438 161.168 110.753 160.374 110.753H157.712C157.218 110.753 156.754 111.128 156.644 111.678C156.425 112.785 156.069 114.28 155.556 115.402C155.129 116.334 154.425 117.381 153.858 118.161C153.54 118.601 153.568 119.173 153.88 119.536L156.232 122.275C156.7 122.819 156.957 123.512 156.957 124.229V125.928C156.957 126.725 156.64 127.489 156.076 128.052L152.831 131.289C152.122 131.997 151.107 132.304 150.125 132.108L148.488 131.782C147.908 131.666 147.376 131.381 146.957 130.963L144.93 128.941C144.537 128.55 143.83 128.522 143.341 128.964C142.596 129.638 141.62 130.435 140.682 130.917C139.567 131.491 138.062 131.845 136.949 132.052C136.372 132.16 135.981 132.641 135.981 133.143V135.606C135.981 136.518 135.566 137.381 134.852 137.951L132.753 139.626C132.335 139.96 131.834 140.176 131.305 140.251L128.728 140.619C127.417 140.805 126.139 140.111 125.583 138.909L124.426 136.407C124.243 136.012 124.148 135.583 124.148 135.148ZM142.013 94.6127C140.248 92.3053 134.636 87.953 126.148 89.0345V119.463C129.49 120.279 136.345 120.141 141.406 113.713C144.099 110.294 144.775 106.419 144.505 102.913C144.236 99.4232 143.03 96.3567 142.013 94.6127ZM126.148 87.0199C135.072 85.978 141.173 90.4026 143.432 93.181L143.646 93.4564L143.708 93.5492C144.87 95.5198 146.202 98.9029 146.499 102.76C146.797 106.635 146.053 111.045 142.977 114.951C137.536 121.86 130.195 122.329 126.148 121.51V135.148C126.148 135.293 126.18 135.436 126.241 135.568L127.397 138.069C127.583 138.469 128.009 138.701 128.446 138.639L131.022 138.272C131.199 138.247 131.366 138.174 131.506 138.063L133.604 136.388C133.842 136.198 133.981 135.91 133.981 135.606V133.143C133.981 131.593 135.144 130.354 136.584 130.086C137.67 129.884 138.929 129.571 139.767 129.139C140.464 128.78 141.283 128.128 142 127.48C143.199 126.396 145.123 126.309 146.343 127.526L148.369 129.547C148.509 129.687 148.686 129.781 148.88 129.82L150.516 130.147C150.844 130.212 151.183 130.11 151.419 129.874L154.663 126.636C154.851 126.449 154.957 126.194 154.957 125.928V124.229C154.957 123.99 154.871 123.759 154.716 123.578L152.363 120.839C151.406 119.726 151.415 118.123 152.239 116.987C152.792 116.225 153.397 115.312 153.736 114.57C154.146 113.674 154.467 112.374 154.682 111.288C154.964 109.869 156.197 108.753 157.712 108.753H160.374C160.639 108.753 160.893 108.648 161.08 108.461L161.964 107.579C162.125 107.419 162.227 107.209 162.252 106.983L162.723 102.751C162.756 102.449 162.651 102.148 162.435 101.933L161.08 100.581C160.892 100.394 160.639 100.289 160.374 100.289H157.941C156.278 100.289 155.004 98.9607 154.84 97.4154C154.75 96.572 154.6 95.6891 154.365 95.0609C154.02 94.1373 153.217 93.0247 152.473 92.1283C151.535 90.9987 151.425 89.2908 152.426 88.0922L154.185 85.9847C154.299 85.8483 154.375 85.6835 154.404 85.5082L154.805 83.1127C154.857 82.8004 154.758 82.4821 154.538 82.2543L151.894 79.514C151.706 79.3188 151.446 79.2084 151.175 79.2084H148.94C148.669 79.2084 148.409 79.3187 148.221 79.514L146.27 81.5355C145.108 82.7397 143.247 82.7311 142.021 81.7435C141.141 81.0337 140.084 80.2913 139.203 79.9447C138.542 79.6847 137.61 79.5021 136.741 79.3832C135.237 79.1773 133.982 77.9169 133.981 76.3031V73.8304C133.981 73.6031 133.903 73.3828 133.761 73.2054L132.18 71.2318C131.99 70.9952 131.703 70.8579 131.399 70.8578H128.113C127.799 70.8579 127.503 71.006 127.314 71.2572L126.349 72.5414C126.219 72.7145 126.148 72.9254 126.148 73.142V87.0199Z" fill="black"/>
<path d="M124 40C124 39.4477 123.552 39 123 39H39C38.4477 39 38 39.4477 38 40V160L38.0049 160.103C38.0562 160.607 38.4823 161 39 161H100.583C100.617 160.644 100.646 160.169 100.668 159.589C100.718 158.247 100.731 156.416 100.72 154.346C100.697 150.21 100.577 145.168 100.458 141.292C100.406 139.597 101.764 138.195 103.46 138.195H124V40ZM103.46 140.195C102.893 140.195 102.44 140.663 102.457 141.23C102.576 145.114 102.697 150.175 102.72 154.335C102.73 156.269 102.717 158.019 102.674 159.368L122.526 140.195H103.46ZM66.0488 132.644C66.0488 132.091 65.601 131.644 65.0488 131.644H51.8779C51.3257 131.644 50.878 132.091 50.8779 132.644V147.173C50.8782 147.725 51.3258 148.173 51.8779 148.173H65.0488C65.6009 148.173 66.0486 147.725 66.0488 147.173V132.644ZM94.2354 147.46C94.7876 147.46 95.2354 147.908 95.2354 148.46C95.2352 149.012 94.7876 149.46 94.2354 149.46H74.2031C73.651 149.46 73.2032 149.012 73.2031 148.46C73.2031 147.908 73.6509 147.46 74.2031 147.46H94.2354ZM62.6084 135.127C62.8875 134.65 63.5 134.491 63.9766 134.77C64.4531 135.049 64.6131 135.661 64.334 136.138L60.8828 142.031C59.777 143.92 57.1381 144.003 55.8271 142.343C55.3111 141.689 54.8076 141.082 54.3994 140.646C54.193 140.426 54.0312 140.271 53.918 140.179C53.9054 140.168 53.894 140.16 53.8848 140.153C53.4719 140.03 53.1709 139.648 53.1709 139.195C53.171 138.643 53.6186 138.195 54.1709 138.195C54.4714 138.195 54.7072 138.314 54.8184 138.376C54.9534 138.451 55.0777 138.543 55.1836 138.63C55.3973 138.805 55.6291 139.033 55.8594 139.279C56.3248 139.776 56.8696 140.434 57.3975 141.103C57.8811 141.715 58.7997 141.631 59.1572 141.021L62.6084 135.127ZM94.9512 138.195C95.5034 138.195 95.9511 138.643 95.9512 139.195C95.9512 139.748 95.5035 140.195 94.9512 140.195H74.2031C73.6509 140.195 73.2031 139.748 73.2031 139.195C73.2032 138.643 73.6509 138.195 74.2031 138.195H94.9512ZM117.846 128.931C118.398 128.931 118.845 129.379 118.846 129.931C118.846 130.483 118.398 130.931 117.846 130.931H74.2031C73.6509 130.931 73.2031 130.483 73.2031 129.931C73.2033 129.379 73.651 128.931 74.2031 128.931H117.846ZM112.837 116.104C113.389 116.104 113.837 116.551 113.837 117.104C113.837 117.656 113.389 118.104 112.837 118.104H74.2031C73.6509 118.103 73.2032 117.656 73.2031 117.104C73.2031 116.551 73.6509 116.104 74.2031 116.104H112.837ZM66.0488 100.575C66.0488 100.023 65.6011 99.5752 65.0488 99.5752H51.8779C51.3257 99.5753 50.8779 100.023 50.8779 100.575V114.391C50.8779 114.943 51.3257 115.391 51.8779 115.391H65.0488C65.6011 115.391 66.0488 114.943 66.0488 114.391V100.575ZM62.7656 102.854C63.1568 102.465 63.7899 102.466 64.1797 102.857C64.5693 103.249 64.5687 103.882 64.1777 104.271C63.4051 105.041 61.3394 107.577 59.5811 109.786C58.2922 111.406 55.777 111.283 54.6699 109.519L52.6084 106.232C52.315 105.765 52.4562 105.148 52.9238 104.854C53.3916 104.561 54.0092 104.702 54.3027 105.17L56.3643 108.455C56.7314 109.04 57.5772 109.091 58.0156 108.541C59.7369 106.378 61.8902 103.727 62.7656 102.854ZM108.545 106.126C109.097 106.126 109.545 106.574 109.545 107.126C109.545 107.678 109.097 108.126 108.545 108.126H74.2031C73.6509 108.126 73.2031 107.678 73.2031 107.126C73.2034 106.574 73.6511 106.126 74.2031 106.126H108.545ZM86.3662 97.5752C86.9183 97.5754 87.3662 98.023 87.3662 98.5752C87.366 99.1271 86.9182 99.575 86.3662 99.5752H74.2031C73.6511 99.5751 73.2034 99.1272 73.2031 98.5752C73.2031 98.023 73.6509 97.5753 74.2031 97.5752H86.3662ZM113.269 49.9766C113.268 49.4246 112.821 48.9767 112.269 48.9766H51.8779C51.3258 48.9766 50.8782 49.4245 50.8779 49.9766V85.8848C50.8779 86.437 51.3257 86.8847 51.8779 86.8848H112.269C112.821 86.8846 113.269 86.437 113.269 85.8848V49.9766ZM68.0488 147.173C68.0486 148.829 66.7055 150.173 65.0488 150.173H51.8779C50.2213 150.173 48.8782 148.829 48.8779 147.173V132.644C48.878 130.987 50.2212 129.644 51.8779 129.644H65.0488C66.7056 129.644 68.0488 130.987 68.0488 132.644V147.173ZM68.0488 114.391C68.0488 116.047 66.7057 117.391 65.0488 117.391H51.8779C50.2211 117.391 48.8779 116.047 48.8779 114.391V100.575C48.8779 98.9184 50.2211 97.5753 51.8779 97.5752H65.0488C66.7057 97.5752 68.0488 98.9184 68.0488 100.575V114.391ZM115.269 85.8848C115.269 87.5415 113.925 88.8846 112.269 88.8848H51.8779C50.2211 88.8847 48.8779 87.5416 48.8779 85.8848V49.9766C48.8782 48.32 50.2213 46.9766 51.8779 46.9766H112.269C113.925 46.9767 115.268 48.32 115.269 49.9766V85.8848ZM126 139.195C126 139.467 125.889 139.727 125.694 139.915L102.085 162.72C101.899 162.9 101.65 163 101.391 163H39C37.3949 163 36.0842 161.739 36.0039 160.154L36 160V40C36 38.3431 37.3431 37 39 37H123C124.657 37 126 38.3432 126 40V139.195Z" fill="black"/>
</svg>
