<svg width="200" height="200" viewBox="0 0 200 200" fill="none" xmlns="http://www.w3.org/2000/svg">
<path d="M156 31C156 30.4477 155.552 30 155 30H56.4229V144.396L156 145.831V31ZM129.962 120.227C130.514 120.227 130.962 120.675 130.962 121.227C130.962 121.779 130.514 122.226 129.962 122.227H90.5C89.9477 122.227 89.5 121.779 89.5 121.227C89.5001 120.674 89.9478 120.227 90.5 120.227H129.962ZM127.038 104.855C127.59 104.855 128.038 105.303 128.038 105.855C128.038 106.408 127.59 106.855 127.038 106.855H90.5C89.9477 106.855 89.5 106.408 89.5 105.855C89.5001 105.303 89.9478 104.855 90.5 104.855H127.038ZM133.346 56.6182C133.345 56.0661 132.898 55.6182 132.346 55.6182H78.6152C78.0632 55.6182 77.6154 56.0661 77.6152 56.6182V81.8965C77.6152 82.4487 78.063 82.8964 78.6152 82.8965H132.346C132.898 82.8965 133.346 82.4488 133.346 81.8965V56.6182ZM44 158.557C44 162.631 45.6797 165.35 47.7607 167.129C49.8505 168.915 52.3673 169.765 54.0361 170H153.543C152.084 168.987 150.522 167.764 149.144 166.431C147.942 165.268 146.848 163.99 146.089 162.665C145.333 161.345 144.863 159.897 145.046 158.433C145.424 155.402 146.2 152.977 148.035 150.935C149.106 149.743 150.503 148.721 152.309 147.777L55.5127 146.382C53.5764 146.739 50.6862 147.776 48.2891 149.726C45.8836 151.682 44 154.526 44 158.557ZM135.346 81.8965C135.346 83.5533 134.003 84.8965 132.346 84.8965H78.6152C76.9585 84.8964 75.6152 83.5533 75.6152 81.8965V56.6182C75.6154 54.9615 76.9586 53.6182 78.6152 53.6182H132.346C134.002 53.6182 135.345 54.9615 135.346 56.6182V81.8965ZM44 151.528C44.843 150.21 45.8918 149.097 47.0273 148.174C49.4461 146.207 52.2759 145.076 54.4229 144.568V30.2617C47.1708 32.1902 44.4932 37.4909 44.0107 40.0078C44.004 40.0433 44 40.0816 44 40.1396V151.528ZM158 146.846C158 147.266 157.737 147.641 157.342 147.785C153.373 149.231 151.001 150.626 149.522 152.271C148.07 153.889 147.384 155.855 147.031 158.681C146.922 159.559 147.189 160.563 147.824 161.672C148.457 162.776 149.41 163.905 150.534 164.993C152.783 167.169 155.595 169.061 157.491 170.129C157.887 170.352 158.082 170.814 157.967 171.254C157.851 171.693 157.454 172 157 172H53.9619C53.9176 172 53.873 171.997 53.8291 171.991C51.8434 171.726 48.9141 170.746 46.4609 168.649C43.9746 166.524 42 163.266 42 158.557V40.1396C42 39.9781 42.0123 39.8112 42.0469 39.6309C42.6856 36.2993 46.1599 29.8359 55.2266 28.0195C55.2912 28.0066 55.357 28 55.4229 28H155C156.657 28 158 29.3431 158 31V146.846Z" fill="black"/>
</svg>
