<svg width="200" height="200" viewBox="0 0 200 200" fill="none" xmlns="http://www.w3.org/2000/svg">
<path d="M157.018 142.123C157.018 141.221 157.423 140.368 158.122 139.798L163.524 135.393C163.91 135.078 164.005 134.529 163.749 134.103L161.427 130.245C161.177 129.83 160.665 129.654 160.212 129.827L153.896 132.247C152.99 132.594 151.972 132.482 151.163 131.944L146.591 128.907C145.927 128.466 145.466 127.78 145.31 126.999L143.755 119.25C143.661 118.783 143.251 118.447 142.774 118.447H137.32C136.819 118.447 136.396 118.818 136.329 119.314L135.32 126.85C135.206 127.706 134.728 128.472 134.008 128.95L129.5 131.944C128.691 132.482 127.672 132.595 126.766 132.247L120.451 129.827C119.999 129.654 119.486 129.83 119.236 130.245L116.953 134.038C116.688 134.478 116.8 135.047 117.211 135.354L123.122 139.772C123.879 140.339 124.325 141.229 124.325 142.175V147.013C124.325 147.905 123.929 148.751 123.242 149.321L117.124 154.402C116.744 154.718 116.651 155.264 116.906 155.688L119.236 159.559C119.486 159.974 119.999 160.15 120.451 159.977L126.859 157.52C127.686 157.203 128.612 157.267 129.387 157.696L133.898 160.194C134.656 160.614 135.196 161.341 135.378 162.188L136.888 169.21C136.987 169.671 137.394 170 137.865 170H142.797C143.268 170 143.675 169.671 143.774 169.21L145.312 162.059C145.47 161.328 145.894 160.677 146.515 160.243C147.372 159.644 148.468 158.898 149.416 158.3C149.888 158.002 150.338 157.731 150.708 157.532C150.892 157.433 151.073 157.343 151.237 157.274C151.357 157.225 151.616 157.12 151.896 157.12L152.064 157.132C152.234 157.154 152.399 157.201 152.495 157.229C152.675 157.28 152.896 157.352 153.141 157.437C153.633 157.607 154.269 157.843 154.971 158.112C156.377 158.652 158.084 159.339 159.524 159.928C159.987 160.117 160.515 159.941 160.771 159.518L163.059 155.717C163.317 155.287 163.217 154.733 162.825 154.42L158.147 150.69C157.434 150.121 157.018 149.258 157.018 148.345V142.123ZM100 159.5C100.552 159.5 101 159.948 101 160.5C101 161.052 100.552 161.5 100 161.5H45C44.4477 161.5 44 161.052 44 160.5C44 159.948 44.4477 159.5 45 159.5H100ZM150.215 144.562C150.215 139.608 145.522 135.561 140.299 135.394C134.994 135.223 130.447 139.367 130.447 144.562C130.447 149.842 135.079 154.577 140.299 154.409C142.831 154.328 145.321 153.146 147.184 151.312C149.045 149.477 150.215 147.056 150.215 144.562ZM64.5 148.308C65.0523 148.308 65.5 148.755 65.5 149.308C65.5 149.86 65.0523 150.308 64.5 150.308H45C44.4477 150.308 44 149.86 44 149.308C44 148.755 44.4477 148.308 45 148.308H64.5ZM96.1162 120.515C96.6685 120.515 97.1162 120.962 97.1162 121.515C97.1161 122.067 96.6684 122.515 96.1162 122.515H62.1045C61.5524 122.515 61.1046 122.067 61.1045 121.515C61.1045 120.962 61.5523 120.515 62.1045 120.515H96.1162ZM125.366 104.245C125.918 104.245 126.366 104.693 126.366 105.245C126.366 105.797 125.918 106.245 125.366 106.245H62.1045C61.5523 106.245 61.1045 105.797 61.1045 105.245C61.1045 104.693 61.5523 104.245 62.1045 104.245H125.366ZM125.366 88.6543C125.918 88.6543 126.366 89.102 126.366 89.6543C126.366 90.2064 125.918 90.6543 125.366 90.6543H62.1045C61.5524 90.6542 61.1047 90.2063 61.1045 89.6543C61.1045 89.1021 61.5523 88.6544 62.1045 88.6543H125.366ZM125.366 73.7402C125.918 73.7402 126.366 74.188 126.366 74.7402C126.366 75.2925 125.918 75.7402 125.366 75.7402H62.1045C61.5523 75.7401 61.1045 75.2925 61.1045 74.7402C61.1046 74.1881 61.5523 73.7403 62.1045 73.7402H125.366ZM124.366 40.8125C124.366 40.2602 123.918 39.8125 123.366 39.8125H64.1045C63.5523 39.8126 63.1045 40.2603 63.1045 40.8125V61.2168C63.1047 61.7688 63.5524 62.2167 64.1045 62.2168H123.366C123.918 62.2168 124.366 61.7689 124.366 61.2168V40.8125ZM152.215 144.562C152.215 147.685 150.759 150.597 148.587 152.736C146.415 154.875 143.463 156.309 140.363 156.408C133.938 156.615 128.447 150.894 128.447 144.562C128.447 138.146 134.022 133.191 140.363 133.395C146.405 133.589 152.215 138.285 152.215 144.562ZM69.9473 130.293C69.9471 129.741 69.4994 129.293 68.9473 129.293H50.9199L69.9473 148.255V130.293ZM71.9473 149.663H119.7L121.965 147.782C122.193 147.592 122.325 147.31 122.325 147.013V142.175C122.325 141.86 122.176 141.563 121.924 141.374L116.014 136.956C114.779 136.033 114.444 134.326 115.239 133.006L117.523 129.213C118.274 127.967 119.809 127.439 121.167 127.959L127.481 130.38C127.784 130.496 128.124 130.458 128.394 130.279L132.9 127.284C133.14 127.125 133.301 126.87 133.339 126.584L134.347 119.049C134.546 117.559 135.817 116.447 137.32 116.447H138.651V32C138.651 31.4478 138.204 31.0001 137.651 31H50.54C49.9809 31 49.5208 31.4605 49.5244 32.0312C49.5618 37.6552 49.4724 48.7342 49.5 54.9951C49.5691 70.6574 49.569 88.9835 49.5518 103.393C49.5431 110.597 49.5303 116.823 49.5195 121.248C49.5141 123.46 49.5094 125.223 49.5059 126.432C49.5049 126.76 49.5046 127.048 49.5039 127.293H68.9473C70.604 127.293 71.9471 128.636 71.9473 130.293V149.663ZM36 167L36.0049 167.103C36.0562 167.607 36.4823 168 37 168H111C111.552 168 112 167.552 112 167V151.663H70.9473C70.683 151.663 70.4295 151.559 70.2422 151.372L47.7939 129.002C47.6049 128.814 47.4991 128.557 47.5 128.29V128.169C47.5003 128.089 47.5015 127.969 47.502 127.812C47.5029 127.497 47.5041 127.03 47.5059 126.426C47.5094 125.217 47.5141 123.455 47.5195 121.243C47.5303 116.819 47.5431 110.593 47.5518 103.39C47.5687 89.2862 47.5677 71.4331 47.5029 56H37C36.4477 56 36 56.4477 36 57V167ZM126.366 61.2168C126.366 62.8734 125.023 64.2168 123.366 64.2168H64.1045C62.4479 64.2167 61.1047 62.8734 61.1045 61.2168V40.8125C61.1045 39.1557 62.4477 37.8126 64.1045 37.8125H123.366C125.023 37.8125 126.366 39.1556 126.366 40.8125V61.2168ZM140.651 116.447H142.774C144.204 116.447 145.434 117.455 145.716 118.856L147.271 126.605C147.323 126.866 147.477 127.094 147.698 127.241L152.27 130.279C152.539 130.458 152.879 130.496 153.181 130.38L159.496 127.959C160.854 127.439 162.39 127.967 163.14 129.213L165.462 133.07C166.232 134.349 165.945 136 164.788 136.943L159.386 141.348C159.153 141.538 159.018 141.823 159.018 142.123V148.345C159.018 148.649 159.157 148.936 159.395 149.126L164.072 152.855C165.249 153.794 165.548 155.459 164.771 156.749L162.484 160.549C161.718 161.822 160.138 162.34 158.768 161.779C157.332 161.193 155.64 160.512 154.253 159.979C153.558 159.713 152.948 159.486 152.488 159.327C152.257 159.247 152.074 159.188 151.942 159.15L151.94 159.149C151.868 159.183 151.773 159.23 151.655 159.293C151.345 159.46 150.942 159.702 150.484 159.991C149.574 160.566 148.506 161.292 147.66 161.883C147.462 162.021 147.32 162.233 147.268 162.479L145.73 169.631C145.433 171.013 144.211 172 142.797 172H137.865C136.452 172 135.23 171.013 134.933 169.631L133.423 162.608C133.362 162.326 133.182 162.084 132.93 161.944L128.418 159.446C128.16 159.303 127.851 159.282 127.575 159.388L121.167 161.844C119.809 162.364 118.274 161.836 117.523 160.59L115.192 156.719C114.428 155.449 114.705 153.81 115.846 152.863L117.291 151.663H114V167C114 168.657 112.657 170 111 170H37C35.3949 170 34.0842 168.739 34.0039 167.154L34 167V57C34 55.3431 35.3431 54 37 54H47.498C47.4821 47.5358 47.5604 37.4487 47.5244 32.0449C47.5133 30.376 48.8594 29 50.54 29H137.651C139.308 29.0001 140.651 30.3432 140.651 32V116.447Z" fill="black"/>
</svg>
