<svg width="800" height="800" viewBox="0 0 32 32" xmlns="http://www.w3.org/2000/svg" xmlns:xlink="http://www.w3.org/1999/xlink" overflow="hidden"><path d="M28.781 4.405 18.651 4.405 18.651 2.018 2 4.588 2 27.115 18.651 29.983 18.651 26.445 28.781 26.445C29.4197 26.4774 29.9645 25.9875 30 25.349L30 5.5C29.964 4.86187 29.4193 4.37263 28.781 4.405ZM28.941 25.531 18.617 25.531 18.6 23.642 21.087 23.642 21.087 21.442 18.581 21.442 18.569 20.142 21.087 20.142 21.087 17.942 18.55 17.942 18.538 16.642 21.087 16.642 21.087 14.442 18.53 14.442 18.53 13.142 21.087 13.142 21.087 10.942 18.53 10.942 18.53 9.642 21.087 9.642 21.087 7.442 18.53 7.442 18.53 5.442 28.941 5.442Z" fill="#20744A" fill-rule="evenodd"/><rect x="22.487" y="7.439" width="4.323" height="2.2" fill="#20744A"/><rect x="22.487" y="10.94" width="4.323" height="2.2" fill="#20744A"/><rect x="22.487" y="14.441" width="4.323" height="2.2" fill="#20744A"/><rect x="22.487" y="17.942" width="4.323" height="2.2" fill="#20744A"/><rect x="22.487" y="21.443" width="4.323" height="2.2" fill="#20744A"/><path d="M6.347 10.673 8.493 10.55 9.842 14.259 11.436 10.397 13.582 10.274 10.976 15.54 13.582 20.819 11.313 20.666 9.781 16.642 8.248 20.513 6.163 20.329 8.585 15.666 6.347 10.673Z" fill="#FFFFFF" fill-rule="evenodd"/></svg>