<svg width="800" height="800" viewBox="-3 0 48 48" xmlns="http://www.w3.org/2000/svg" xmlns:xlink="http://www.w3.org/1999/xlink" overflow="hidden"><style>
.MsftOfcResponsive_Fill_ffd200 {
 fill:#FFD200; 
}
</style>
<g transform="translate(-728.977 -117.86)"><line x1="0" y1="0" x2="29" y2="0" stroke="#0078C1" stroke-width="1.71429" stroke-linecap="round" stroke-linejoin="round" fill="none" transform="translate(738.477 160.36)"/><line x1="0" y1="0" x2="10" y2="0" stroke="#0078C1" stroke-width="1.71429" stroke-linecap="round" stroke-linejoin="round" fill="none" transform="translate(760.477 165.36)"/><path d="M4.922 0 39 0 39 0 39 10 39 10 4.891 10C2.18977 10-2.05994e-07 7.81022-2.05994e-07 5.109L0 4.922C0 2.20365 2.20365-6.86645e-08 4.922-6.86645e-08Z" class="MsftOfcResponsive_Fill_ffd200" stroke="#0078C1" stroke-width="1.71429" stroke-linecap="round" stroke-linejoin="round" fill="#FFD200" transform="translate(729.477 155.36)"/><path d="M734.477 155.36 769.477 155.36C770.029 155.36 770.477 154.912 770.477 154.36L770.477 119.675C770.477 119.123 770.029 118.36 769.477 118.36L736.209 118.36C732.42 118.512 729.438 121.647 729.477 125.439L729.477 160.36" class="MsftOfcResponsive_Fill_ffd200" stroke="#0078C1" stroke-width="1.71429" stroke-linecap="round" stroke-linejoin="round" fill="#FFD200"/><line x1="0" y1="0" x2="0" y2="36" stroke="#0078C1" stroke-width="1.71429" stroke-linecap="round" stroke-linejoin="round" fill="none" transform="translate(736.477 119.36)"/><path d="M760.643 131.443C760.643 132.291 758.551 132.716 758.243 133.453 757.926 134.217 759.093 135.994 758.518 136.57 757.943 137.146 756.164 135.979 755.401 136.295 754.664 136.601 754.239 138.695 753.391 138.695 752.543 138.695 752.119 136.603 751.382 136.295 750.618 135.979 748.84 137.145 748.265 136.57 747.69 135.995 748.856 134.217 748.539 133.453 748.239 132.716 746.139 132.291 746.139 131.443 746.139 130.595 748.232 130.171 748.539 129.434 748.856 128.67 747.689 126.892 748.265 126.317 748.841 125.742 750.618 126.908 751.382 126.591 752.119 126.286 752.544 124.191 753.391 124.191 754.238 124.191 754.664 126.284 755.401 126.591 756.165 126.908 757.942 125.741 758.518 126.317 759.094 126.893 757.926 128.67 758.243 129.434 758.551 130.171 760.643 130.6 760.643 131.443Z" class="MsftOfcResponsive_Fill_ffd200" stroke="#0078C1" stroke-width="1.71429" stroke-linecap="round" stroke-linejoin="round" fill="#FFD200"/><line x1="0" y1="0" x2="13" y2="0" stroke="#0078C1" stroke-width="1.71429" stroke-linecap="round" stroke-linejoin="round" fill="none" transform="translate(747.477 143.36)"/><line x1="0" y1="0" x2="13" y2="0" stroke="#0078C1" stroke-width="1.71429" stroke-linecap="round" stroke-linejoin="round" fill="none" transform="translate(747.477 147.36)"/></g></svg>