<svg width="800" height="800" viewBox="0 0 512.001 512.001" xmlns="http://www.w3.org/2000/svg" xmlns:xlink="http://www.w3.org/1999/xlink" id="Layer_1" overflow="hidden"><style>
.MsftOfcResponsive_Fill_0078c1 {
 fill:#0078C1; 
}
</style>
<g><g><path d="M336.129 173.05 199.272 36.199C195.421 32.349 190.201 30.187 184.757 30.187L20.529 30.187C9.191 30.187 0 39.378 0 50.715L0 461.286C0 472.623 9.191 481.815 20.529 481.815L321.615 481.815C332.952 481.815 342.144 472.624 342.144 461.286L342.144 187.566C342.143 182.121 339.98 176.9 336.129 173.05ZM205.286 100.274 272.053 167.038 205.286 167.038 205.286 100.274ZM301.086 440.758 41.057 440.758 41.057 71.244 164.228 71.244 164.228 187.567C164.228 198.904 173.419 208.096 184.757 208.096L301.085 208.096 301.085 440.758Z" class="MsftOfcResponsive_Fill_0078c1" fill="#0078C1"/></g></g><g><g><path d="M239.5 344.958 102.643 344.958C91.306 344.958 82.114 354.149 82.114 365.487 82.114 376.825 91.305 386.016 102.643 386.016L239.5 386.016C250.837 386.016 260.029 376.825 260.029 365.487 260.028 354.148 250.837 344.958 239.5 344.958Z" class="MsftOfcResponsive_Fill_0078c1" fill="#0078C1"/></g></g><g><g><path d="M239.5 262.844 102.643 262.844C91.306 262.844 82.114 272.035 82.114 283.373 82.114 294.71 91.305 303.902 102.643 303.902L239.5 303.902C250.837 303.902 260.029 294.711 260.029 283.373 260.028 272.034 250.837 262.844 239.5 262.844Z" class="MsftOfcResponsive_Fill_0078c1" fill="#0078C1"/></g></g><g><g><path d="M505.988 36.199C502.138 32.349 496.917 30.186 491.472 30.186L403.729 30.186C398.283 30.186 393.062 32.35 389.213 36.199 385.364 40.048 383.201 45.271 383.201 50.715L383.204 417.417C383.204 422.863 385.366 428.084 389.218 431.933L433.088 475.803C437.097 479.812 442.351 481.817 447.603 481.817 452.856 481.817 458.111 479.813 462.118 475.803L505.988 431.933C509.838 428.083 512.001 422.862 512.001 417.417L512.004 50.715C512 45.271 509.838 40.048 505.988 36.199ZM470.94 408.914 447.599 432.255 424.258 408.914 424.257 71.244 470.943 71.244 470.94 408.914Z" class="MsftOfcResponsive_Fill_0078c1" fill="#0078C1"/></g></g></svg>