<svg width="800" height="800" viewBox="0 0 14 14" xmlns="http://www.w3.org/2000/svg" xmlns:xlink="http://www.w3.org/1999/xlink" overflow="hidden"><style>
.MsftOfcResponsive_Fill_0078c1 {
 fill:#0078C1; 
}
</style>
<path d="M10 10.6969 4 10.6969 4 9.62563 10 9.62563ZM9.99886 8.71803 7.66202 8.71803 7.66202 7.64674 9.99886 7.64674ZM9.99886 6.74208 7.66202 6.74208 7.66202 5.67079 9.99886 5.67079ZM6.6959 8.71803 4 8.71803 4 5.67082 6.6959 5.67082ZM7.64015 1.26517C7.49432 1.11934 7.20625 1 7 1L2.5 1C2.29375 1 2.125 1.16875 2.125 1.375L2.125 12.625C2.125 12.8313 2.29375 13 2.5 13L11.5 13C11.7063 13 11.875 12.8313 11.875 12.625L11.875 5.875C11.875 5.66875 11.7557 5.38068 11.6099 5.23485L7.64015 1.26517ZM11.125 12.25 2.875 12.25 2.875 1.75 6.99013 1.75C7.0243 1.756 7.08866 1.7823 7.11681 1.8025L11.0725 5.75821C11.0927 5.78631 11.1194 5.85071 11.125 5.88489L11.125 12.25ZM11.5 1 9.25 1C9.04375 1 8.99432 1.11932 9.14015 1.26515L11.6098 3.73483C11.7557 3.88068 11.875 3.83125 11.875 3.625L11.875 1.375C11.875 1.16875 11.7063 1 11.5 1Z" class="MsftOfcResponsive_Fill_0078c1" fill="#0078C1"/></svg>