<svg width="800" height="800" viewBox="0 0 326.207 326.207" xmlns="http://www.w3.org/2000/svg" xmlns:xlink="http://www.w3.org/1999/xlink" id="Layer_1" overflow="hidden"><style>
.MsftOfcResponsive_Fill_0078c1 {
 fill:#0078C1; 
}
</style>
<g><g><g><path d="M318.707 40.524 7.5 40.524C3.358 40.524 0 43.881 0 48.024L0 278.182C0 282.325 3.358 285.682 7.5 285.682L318.707 285.682C322.849 285.682 326.207 282.325 326.207 278.182L326.207 48.024C326.207 43.883 322.849 40.524 318.707 40.524ZM311.207 270.683 15 270.683 15 55.524 311.207 55.524 311.207 270.683Z" class="MsftOfcResponsive_Fill_0078c1" fill="#0078C1"/><path d="M37.5 255.685 144.6 255.685C148.742 255.685 152.1 252.328 152.1 248.185L152.1 78.024C152.1 73.881 148.742 70.524 144.6 70.524L123.654 70.524C119.512 70.524 116.154 73.881 116.154 78.024 116.154 82.167 119.512 85.524 123.654 85.524L137.1 85.524 137.1 134.657 91.05 134.657C86.908 134.657 83.55 138.014 83.55 142.157 83.55 146.3 86.908 149.657 91.05 149.657L137.1 149.657 137.1 189.832 121.997 189.832C117.855 189.832 114.497 193.189 114.497 197.332 114.497 201.475 117.855 204.832 121.997 204.832L137.1 204.832 137.1 240.684 98.55 240.684 98.55 197.332C98.55 193.189 95.192 189.832 91.05 189.832 86.908 189.832 83.55 193.189 83.55 197.332L83.55 240.684 45 240.684 45 204.832 60.104 204.832C64.246 204.832 67.604 201.475 67.604 197.332 67.604 193.189 64.246 189.832 60.104 189.832L45 189.832 45 85.524 92.708 85.524C96.85 85.524 100.208 82.167 100.208 78.024 100.208 73.881 96.85 70.524 92.708 70.524L37.5 70.524C33.358 70.524 30 73.881 30 78.024L30 248.183C30 252.326 33.358 255.685 37.5 255.685Z" class="MsftOfcResponsive_Fill_0078c1" fill="#0078C1"/><path d="M184.202 151.577 288.707 151.577C292.849 151.577 296.207 148.22 296.207 144.077L296.207 78.024C296.207 73.881 292.849 70.524 288.707 70.524L184.202 70.524C180.06 70.524 176.702 73.881 176.702 78.024L176.702 144.077C176.702 148.22 180.06 151.577 184.202 151.577ZM191.702 85.524 281.207 85.524 281.207 136.577 191.702 136.577 191.702 85.524Z" class="MsftOfcResponsive_Fill_0078c1" fill="#0078C1"/><path d="M184.202 174.832 288.707 174.832C292.849 174.832 296.207 171.475 296.207 167.332 296.207 163.189 292.849 159.832 288.707 159.832L184.202 159.832C180.06 159.832 176.702 163.189 176.702 167.332 176.702 171.475 180.06 174.832 184.202 174.832Z" class="MsftOfcResponsive_Fill_0078c1" fill="#0078C1"/><path d="M184.202 201.782 268.77 201.782C272.912 201.782 276.27 198.425 276.27 194.282 276.27 190.139 272.912 186.782 268.77 186.782L184.202 186.782C180.06 186.782 176.702 190.139 176.702 194.282 176.702 198.425 180.06 201.782 184.202 201.782Z" class="MsftOfcResponsive_Fill_0078c1" fill="#0078C1"/><path d="M184.202 255.685 236.455 255.685C240.597 255.685 243.955 252.328 243.955 248.185 243.955 244.042 240.597 240.685 236.455 240.685L184.202 240.685C180.06 240.685 176.702 244.042 176.702 248.185 176.702 252.326 180.06 255.685 184.202 255.685Z" class="MsftOfcResponsive_Fill_0078c1" fill="#0078C1"/><path d="M184.202 228.733 268.77 228.733C272.912 228.733 276.27 225.376 276.27 221.233 276.27 217.09 272.912 213.733 268.77 213.733L184.202 213.733C180.06 213.733 176.702 217.09 176.702 221.233 176.702 225.376 180.06 228.733 184.202 228.733Z" class="MsftOfcResponsive_Fill_0078c1" fill="#0078C1"/></g></g></g></svg>